# xmcd
#
# Track frame offsets: 
#        182
#        15107
#        28862
#        42727
#        56205
#        69032
#        86125
#        99220
#        110930
#        121435
#        134982
#        143985
#        156195
#        167395
#        178562
#
# Disc length: 2554 seconds
#
# Revision: 5
# Processed by: cddbd v1.5.2PL0 Copyright (c) Steve Scherf et al.
# Submitted via: ExactAudioCopy v1.3
#
DISCID=d209f80f
DTITLE=At home with Country - 15 Classic tracks
DYEAR=0
DGENRE=
TTITLE0=Don Gibson - I can´t stop loving you
TTITLE1=George Jones - Almost persuaded
TTITLE2=Kenny Rogers - Ruby, don´t take your love to town
TTITLE3=Don Williams - Where do i go from here? 
TTITLE4=Willie Nelson - Shelter of your arms
TTITLE5=Ferlin Husky - For the good times
TTITLE6=Faron Young - Four in the morning
TTITLE7=Johnny Paycheck - Heartaches by the number
TTITLE8=Carl Perkins - Daddy sang bass
TTITLE9=Johnny Russell - Catfish John
TTITLE10=Waylon Jennings - Love´s gonna live here
TTITLE11=jack Greene - There goes my everthing
TTITLE12=Stonewall Jackson - Things to talk about
TTITLE13=Hank Locklin - Send me the pillow that you dream on
TTITLE14=Johnny Darrell - Son of hickory holler´s tramp
EXTD=
EXTT0=
EXTT1=
EXTT2=
EXTT3=
EXTT4=
EXTT5=
EXTT6=
EXTT7=
EXTT8=
EXTT9=
EXTT10=
EXTT11=
EXTT12=
EXTT13=
EXTT14=
PLAYORDER=
